<svg xmlns="http://www.w3.org/2000/svg" width="580" height="386" fill="none" viewBox="0 0 580 386"><path fill="url(#paint0_linear_4_2)" fill-rule="evenodd" d="M272.053 185.175C274.703 161.875 288.473 140.525 309.422 129.505C324.202 121.692 339.749 119.262 356.062 122.215C383.793 127.215 405.013 147.675 412.353 174.935C412.626 175.935 412.799 176.969 412.872 178.035C412.946 179.055 412.472 179.565 411.452 179.565L389.112 179.585C388.762 179.585 388.422 179.473 388.143 179.266C387.863 179.058 387.66 178.767 387.562 178.435C382.663 162.135 368.592 150.095 352.682 146.825C341.516 144.525 330.586 146.219 319.892 151.905C304.983 160.915 296.843 175.295 296.693 192.595C296.539 210.969 290.133 226.975 277.473 240.615C263.893 255.235 244.543 263.535 224.713 263.495C219.346 263.482 213.659 262.702 207.653 261.155C183.083 254.815 163.623 235.765 156.663 211.375C146.073 174.245 168.073 135.105 204.923 124.075C232.033 115.955 260.773 124.705 279.273 145.705C279.686 146.165 279.726 146.659 279.393 147.185C276.273 152.075 273.183 157.015 270.993 162.385C267.273 171.505 265.356 181.072 265.243 191.085C265.24 191.365 265.127 191.632 264.929 191.828C264.73 192.025 264.462 192.135 264.183 192.135H180.153C179.273 192.135 178.849 192.575 178.883 193.455C179.476 208.042 185.306 219.795 196.373 228.715C208.403 238.415 224.493 241.145 238.983 236.775C246.443 234.522 253.176 230.279 259.183 224.045C267.603 215.315 271.883 203.455 271.753 190.705C271.739 188.912 271.839 187.069 272.053 185.175ZM263.353 165.925C247.643 143.335 217.713 139.395 195.903 156.075C192.323 158.805 189.503 162.555 186.933 166.165C186.866 166.257 186.826 166.365 186.817 166.478C186.808 166.591 186.831 166.704 186.883 166.805C186.935 166.905 187.014 166.99 187.111 167.048C187.208 167.106 187.319 167.137 187.433 167.135L263.443 167.055C263.519 167.056 263.594 167.029 263.653 166.98C263.712 166.93 263.75 166.861 263.763 166.785C263.802 166.565 263.743 166.372 263.583 166.205C263.496 166.119 263.419 166.025 263.353 165.925ZM412.703 205.165C406.676 204.952 400.666 204.898 394.673 205.005C393.985 205.015 393.296 204.99 392.608 204.965C391.134 204.912 389.664 204.859 388.233 205.145C387.913 205.205 387.703 205.392 387.603 205.705C382.593 221.415 370.653 233.275 354.683 237.235C349.369 238.548 344.513 239.035 340.113 238.695C322.719 237.362 309.739 228.562 301.173 212.295C301.006 211.968 300.873 211.985 300.773 212.345C298.379 221.118 294.579 229.498 289.373 237.485C289.185 237.772 289.099 238.113 289.13 238.455C289.161 238.796 289.306 239.117 289.543 239.365C303.916 254.552 321.499 262.625 342.293 263.585C343.899 263.665 345.489 263.595 347.063 263.375C348.344 263.199 349.627 263.058 350.909 262.917C353.64 262.617 356.365 262.318 359.053 261.685C384.913 255.615 404.913 235.935 412.343 210.315C412.783 208.802 413.059 207.258 413.173 205.685C413.176 205.642 413.174 205.599 413.166 205.557C413.162 205.535 413.156 205.513 413.149 205.492C413.128 205.429 413.094 205.372 413.05 205.323C413.006 205.274 412.953 205.235 412.893 205.208C412.833 205.181 412.768 205.166 412.703 205.165Z" clip-rule="evenodd"/><path fill="#986DFF" d="M452.703 156.936H477.535L443.487 245H418.655L452.703 156.936ZM486.555 225.8L532.123 206.6L486.555 187.4V168.2L547.995 195.848V217.352L486.555 245V225.8Z"/><path fill="#3B82F6" d="M68.305 217.352V195.848L129.745 168.2V187.4L84.177 206.6L129.745 225.8V245L68.305 217.352Z"/><defs><linearGradient id="paint0_linear_4_2" x1="99.683" x2="320.682" y1="204.825" y2="201.825" gradientUnits="userSpaceOnUse"><stop stop-color="#0E76DF"/><stop offset="1" stop-color="#986DFF"/></linearGradient></defs></svg>