<svg width="173" height="35" viewBox="0 0 173 35" fill="none" xmlns="http://www.w3.org/2000/svg">
<path fill-rule="evenodd" clip-rule="evenodd" d="M76.0732 15.8494C76.8605 10.458 80.9515 5.51786 87.1754 2.96796C91.5665 1.16011 96.1855 0.597837 101.032 1.28113C109.271 2.43807 115.575 7.17229 117.756 13.48C117.837 13.7113 117.888 13.9506 117.91 14.1973C117.932 14.4333 117.791 14.5513 117.488 14.5513L110.851 14.5559C110.747 14.5559 110.646 14.53 110.563 14.4821C110.48 14.434 110.42 14.3666 110.391 14.2898C108.935 10.5182 104.755 7.73226 100.028 6.97561C96.7105 6.44342 93.4632 6.83539 90.286 8.15107C85.8566 10.2359 83.4382 13.5633 83.3936 17.5663C83.3479 21.8178 81.4447 25.5214 77.6834 28.6776C73.6488 32.0605 67.9 33.981 62.0085 33.9718C60.414 33.9688 58.7244 33.7883 56.94 33.4303C49.6404 31.9633 43.8588 27.5554 41.791 21.9118C38.6448 13.3203 45.1809 4.26373 56.129 1.71151C64.1833 -0.167366 72.7219 1.85729 78.2182 6.71646C78.3409 6.8229 78.3528 6.9372 78.2539 7.05891C77.3269 8.19041 76.4089 9.33347 75.7582 10.576C74.653 12.6863 74.0835 14.9 74.0499 17.2169C74.049 17.2817 74.0154 17.3435 73.9566 17.3888C73.8975 17.4344 73.8179 17.4599 73.735 17.4599H48.7699C48.5084 17.4599 48.3824 17.5617 48.3925 17.7653C48.5687 21.1406 50.3008 23.8601 53.5888 25.9241C57.1629 28.1685 61.9432 28.8002 66.2481 27.7891C68.4645 27.2677 70.4648 26.286 72.2495 24.8435C74.7511 22.8234 76.0226 20.0792 75.984 17.129C75.9799 16.7141 76.0096 16.2876 76.0732 15.8494ZM73.4884 11.3951C68.821 6.16807 59.9289 5.25639 53.4491 9.11596C52.3855 9.74765 51.5477 10.6154 50.7842 11.4507C50.7643 11.472 50.7524 11.497 50.7497 11.5231C50.747 11.5492 50.7539 11.5754 50.7693 11.5988C50.7848 11.6219 50.8082 11.6416 50.8371 11.655C50.8659 11.6684 50.8989 11.6756 50.9327 11.6751L73.5151 11.6566C73.5377 11.6568 73.56 11.6506 73.5775 11.6393C73.5951 11.6277 73.6063 11.6117 73.6102 11.5941C73.6218 11.5432 73.6043 11.4986 73.5567 11.4599C73.5309 11.44 73.508 11.4183 73.4884 11.3951ZM117.86 20.4748C116.069 20.4256 114.284 20.4131 112.503 20.4378C112.299 20.4401 112.094 20.4344 111.89 20.4286C111.452 20.4163 111.015 20.404 110.59 20.4702C110.495 20.4841 110.433 20.5274 110.403 20.5998C108.914 24.2349 105.367 26.9792 100.622 27.8955C99.0436 28.1993 97.6009 28.312 96.2936 28.2333C91.1259 27.9249 87.2696 25.8887 84.7246 22.1247C84.675 22.049 84.6355 22.0529 84.6058 22.1362C83.8946 24.1662 82.7656 26.1052 81.2189 27.9533C81.163 28.0198 81.1375 28.0987 81.1467 28.1778C81.1559 28.2567 81.199 28.331 81.2694 28.3884C85.5396 31.9025 90.7635 33.7705 96.9413 33.9926C97.4184 34.0111 97.8908 33.9949 98.3585 33.944C98.739 33.9033 99.1202 33.8707 99.5011 33.838C100.312 33.7686 101.122 33.6994 101.921 33.553C109.604 32.1484 115.546 27.5947 117.753 21.6665C117.884 21.3164 117.966 20.9591 118 20.5952C118 20.5852 118 20.5753 117.998 20.5656C117.996 20.5605 117.995 20.5554 117.992 20.5505C117.986 20.5359 117.976 20.5227 117.963 20.5114C117.95 20.5001 117.934 20.491 117.916 20.4848C117.899 20.4786 117.879 20.4751 117.86 20.4748Z" fill="url(#paint0_linear_4_17)"/>
<path d="M130.003 9H137.299L127.296 30H120L130.003 9ZM139.949 25.4215L153.337 20.843L139.949 16.2645V11.686L158 18.2791V23.407L139.949 30V25.4215Z" fill="#986DFF"/>
<path d="M15 23.52V18.48L33 12V16.5L19.65 21L33 25.5V30L15 23.52Z" fill="#3B82F6"/>
<defs>
<linearGradient id="paint0_linear_4_17" x1="24.8622" y1="20.3962" x2="90.5129" y2="19.2519" gradientUnits="userSpaceOnUse">
<stop stop-color="#0E76DF"/>
<stop offset="1" stop-color="#986DFF"/>
</linearGradient>
</defs>
</svg>
