<svg xmlns="http://www.w3.org/2000/svg" width="357" height="300" fill="none" viewBox="0 0 357 300"><rect width="156.541" height="274.378" x="197.676" y="23.622" fill="#FEFEFE" stroke="url(#paint0_linear_601_88)" stroke-width="4" rx="30"/><path fill="#EBEBEB" d="M245.676 34.5945C238.78 33.9088 236.087 31.8006 234.595 23.2432H317.027C315.765 30.9046 313.307 33.6071 304.865 34.5945H245.676Z"/><rect width="156.541" height="274.378" x="2" y="23.622" fill="#FEFEFE" stroke="url(#paint1_linear_601_88)" stroke-width="4" rx="30"/><circle cx="276.216" cy="15.135" r="15.135" fill="#DE3E3E"/><path fill="#EBEBEB" d="M50 34.5945C43.1045 33.9088 40.4114 31.8006 38.9189 23.2432H121.351C120.09 30.9046 117.631 33.6071 109.189 34.5945H50Z"/><circle cx="80" cy="15.135" r="15.135" fill="#21A362"/><path stroke="#fff" stroke-linecap="round" stroke-linejoin="round" stroke-width="2" d="M85.7657 10.8107L77.8378 18.7386L74.2342 15.135"/><path stroke="#fff" stroke-linecap="round" stroke-linejoin="round" stroke-width="2" d="M280.541 10.8107L271.892 19.4593"/><path stroke="#fff" stroke-linecap="round" stroke-linejoin="round" stroke-width="2" d="M271.892 10.8107L280.541 19.4593"/><rect width="54.054" height="48.649" x="217.297" y="59.459" fill="#B1B1B1" rx="2"/><rect width="54.054" height="48.649" x="280.541" y="59.459" fill="#EBEBEB" rx="16"/><rect width="43.784" height="48.649" x="217.297" y="117.838" fill="#EBEBEB" rx="2"/><rect width="54.054" height="37.838" x="280.541" y="117.838" fill="#B1B1B1" rx="16"/><rect width="54.054" height="48.649" x="21.622" y="59.459" fill="#EBEBEB" rx="8"/><rect width="54.054" height="48.649" x="84.865" y="59.459" fill="#EBEBEB" rx="8"/><rect width="54.054" height="48.649" x="21.622" y="117.838" fill="#EBEBEB" rx="8"/><rect width="54.054" height="48.649" x="84.865" y="117.838" fill="#EBEBEB" rx="8"/><defs><linearGradient id="paint0_linear_601_88" x1="275.946" x2="275.946" y1="21.622" y2="300" gradientUnits="userSpaceOnUse"><stop stop-color="#EBEBEB"/><stop offset="1" stop-color="#EBEBEB" stop-opacity=".08"/></linearGradient><linearGradient id="paint1_linear_601_88" x1="80.27" x2="80.27" y1="21.622" y2="300" gradientUnits="userSpaceOnUse"><stop stop-color="#EBEBEB"/><stop offset="1" stop-color="#EBEBEB" stop-opacity=".08"/></linearGradient></defs></svg>